<?xml version="1.0" standalone="no"?>
<!DOCTYPE svg PUBLIC "-//W3C//DTD SVG 20010904//EN"
 "http://www.w3.org/TR/2001/REC-SVG-20010904/DTD/svg10.dtd">
<svg version="1.0" xmlns="http://www.w3.org/2000/svg"
 width="96.000000pt" height="96.000000pt" viewBox="0 0 96.000000 96.000000"
 preserveAspectRatio="xMidYMid meet">
<metadata>
Created by potrace 1.11, written by Peter Selinger 2001-2013
</metadata>
<g transform="translate(0.000000,96.000000) scale(0.100000,-0.100000)"
fill="#000000" stroke="none">
<path d="M544 846 c-3 -7 -4 -35 -2 -62 2 -41 6 -49 23 -49 16 0 19 7 20 45 1
25 -1 53 -3 63 -5 20 -30 23 -38 3z"/>
<path d="M304 759 c-8 -14 49 -93 70 -97 26 -5 19 35 -11 74 -29 35 -47 42
-59 23z"/>
<path d="M760 730 c-31 -39 -34 -70 -8 -70 18 1 81 87 73 100 -12 20 -34 10
-65 -30z"/>
<path d="M520 680 c-47 -9 -89 -32 -124 -69 -24 -25 -38 -31 -72 -31 -54 0
-105 -22 -154 -66 -38 -34 -75 -109 -73 -145 1 -10 -6 -21 -16 -24 -95 -30
-107 -172 -19 -221 35 -20 556 -19 602 0 56 23 88 76 91 148 2 35 10 81 18
103 24 61 21 123 -9 183 -45 90 -146 140 -244 122z m149 -78 c62 -49 90 -131
68 -197 -13 -40 -11 -40 -46 -14 -20 14 -50 24 -85 27 -45 4 -55 8 -60 26 -7
26 -50 74 -94 105 -27 19 -31 26 -21 38 50 59 173 67 238 15z m-249 -87 c40
-21 89 -83 96 -123 6 -31 9 -33 33 -27 48 11 66 12 89 4 65 -24 91 -100 55
-160 -32 -53 -53 -57 -341 -55 l-264 1 -24 28 c-13 15 -24 36 -24 46 0 29 37
69 70 76 27 6 30 11 30 43 0 75 60 154 135 179 38 13 108 7 145 -12z"/>
<path d="M833 514 c-8 -23 10 -31 67 -29 55 2 65 7 57 30 -9 22 -115 22 -124
-1z"/>
<path d="M796 315 c-6 -18 69 -77 93 -73 29 6 21 28 -20 57 -47 35 -64 38 -73
16z"/>
</g>
</svg>
